<?xml version="1.0" encoding="UTF-8" standalone="no"?>
<svg
   xmlns:dc="http://purl.org/dc/elements/1.1/"
   xmlns:cc="http://creativecommons.org/ns#"
   xmlns:rdf="http://www.w3.org/1999/02/22-rdf-syntax-ns#"
   xmlns:svg="http://www.w3.org/2000/svg"
   xmlns="http://www.w3.org/2000/svg"
   xmlns:sodipodi="http://sodipodi.sourceforge.net/DTD/sodipodi-0.dtd"
   xmlns:inkscape="http://www.inkscape.org/namespaces/inkscape"
   width="800"
   height="800"
   version="1.1"
   viewBox="0 0 800.00001 800.00001"
   id="svg20"
   sodipodi:docname="favicon.svg"
   inkscape:version="0.92.5 (2060ec1f9f, 2020-04-08)">
  <metadata
     id="metadata24">
    <rdf:RDF>
      <cc:Work
         rdf:about="">
        <dc:format>image/svg+xml</dc:format>
        <dc:type
           rdf:resource="http://purl.org/dc/dcmitype/StillImage" />
      </cc:Work>
    </rdf:RDF>
  </metadata>
  <sodipodi:namedview
     pagecolor="#ffffff"
     bordercolor="#666666"
     borderopacity="1"
     objecttolerance="10"
     gridtolerance="10"
     guidetolerance="10"
     inkscape:pageopacity="0"
     inkscape:pageshadow="2"
     inkscape:window-width="1919"
     inkscape:window-height="1052"
     id="namedview22"
     showgrid="false"
     inkscape:zoom="0.834386"
     inkscape:cx="462.73352"
     inkscape:cy="401.73204"
     inkscape:window-x="0"
     inkscape:window-y="0"
     inkscape:window-maximized="0"
     inkscape:current-layer="g18" />
  <defs
     id="defs10">
    <mask
       id="a"
       maskUnits="userSpaceOnUse">
      <circle
         cx="400"
         cy="400"
         r="400"
         color="#000000"
         color-rendering="auto"
         fill="#fff"
         image-rendering="auto"
         shape-rendering="auto"
         solid-color="#000000"
         style="isolation:auto;mix-blend-mode:normal"
         id="circle2" />
    </mask>
    <linearGradient
       id="b"
       x1="455.72"
       x2="76.457"
       y1="328.57"
       y2="755.71"
       gradientUnits="userSpaceOnUse">
      <stop
         stop-opacity=".42"
         offset="0"
         id="stop5" />
      <stop
         stop-opacity="0"
         offset="1"
         id="stop7" />
    </linearGradient>
  </defs>
  <g
     transform="translate(0 -252.36)"
     shape-rendering="auto"
     id="g18">
    <circle
       cx="400"
       cy="652.36"
       r="400"
       color="#000000"
       color-rendering="auto"
       fill="#1c8adb"
       image-rendering="auto"
       solid-color="#000000"
       style="isolation:auto;mix-blend-mode:normal;fill:#aad400"
       id="circle12" />
    <path
       transform="translate(0 252.36)"
       d="m596.74 182.86c-0.18294-0.01-0.37009-8.3e-4 -0.5586 0.0273l-43.248 6.4805-27.26 27.348-19.66-20.314-21.963 3.291-27.26 27.348-19.66-20.316-20.854 3.125-27.26 27.348-19.66-20.316-19.744 2.959-27.26 27.348-19.66-20.316-111.76 16.75c-1.281 0.19197-2.2094 1.2308-2.3242 2.4629l-187.92 187.92c23.022 288.37 231.8 373.51 423.2 365.6l182.46-182.46v-293.61c0.26361-0.38159 0.42243-0.83656 0.46484-1.3262 1.4096-0.12274 2.5117-1.284 2.5117-2.7266v-33.816c0-1.5249-1.2271-2.752-2.752-2.752h-16.27s-27.867 28.086-27.867 28.086h-39.014l20.061-28.086 58.533-61.141c1.508-0.226 2.5404-1.6228 2.3144-3.1309l-5.0117-33.441c-0.19774-1.3195-1.2917-2.275-2.5723-2.3418z"
       color="#000000"
       color-rendering="auto"
       fill="url(#b)"
       image-rendering="auto"
       mask="url(#a)"
       solid-color="#000000"
       style="isolation:auto;mix-blend-mode:normal"
       id="path14" />
    <path
       transform="translate(0 252.36)"
       d="m596.74 182.86c-0.18294-0.01-0.37009-8.7e-4 -0.5586 0.02734l-43.248 6.4805 32.986 34.816 16.09-2.4102c1.508-0.226 2.5404-1.6228 2.3144-3.1309l-5.0117-33.441c-0.19774-1.3195-1.2917-2.275-2.5723-2.3418zm-90.727 13.541l-21.963 3.291 32.986 34.816 22.58-3.3848-33.604-34.723zm-68.883 10.322l-20.854 3.125 32.984 34.816 21.471-3.2168-33.602-34.725zm-67.773 10.156l-19.744 2.959 32.986 34.816 20.359-3.0508-33.602-34.725zm-66.664 9.9902l-111.76 16.75c-1.508 0.226-2.5404 1.6228-2.3144 3.1309l5.0117 33.441c0.05961 0.39778 0.20531 0.75894 0.4082 1.0762v40.966l8.9863 0.0332v294.87h403.32v-294.91h0.22461c1.5249 0 2.752-1.2271 2.752-2.752v-33.816c0-1.5249-1.2271-2.752-2.752-2.752h-16.27l-19.615 28.086h-47.266l20.061-28.086h-22.832l-19.617 28.086h-47.266l20.061-28.086h-21.711l-19.613 28.086h-47.266l20.061-28.086h-20.588l-19.615 28.086h-47.266l20.061-28.086h-62.498l-11.783-10.426 72.693-10.895-33.604-34.725zm-91.818 32.275a3.972 3.972 0 0 1 3.9727 3.9727 3.972 3.972 0 0 1 -3.9727 3.9707 3.972 3.972 0 0 1 -3.9707 -3.9707 3.972 3.972 0 0 1 3.9707 -3.9727zm0 46.473a3.972 3.972 0 0 1 3.9727 3.9727 3.972 3.972 0 0 1 -0.26367 1.4102 3.972 3.972 0 0 1 -0.00391 0.00977 3.972 3.972 0 0 1 -0.15625 0.35351 3.972 3.972 0 0 1 -0.17383 0.3125 3.972 3.972 0 0 1 -0.03515 0.05665 3.972 3.972 0 0 1 -0.18164 0.25781 3.972 3.972 0 0 1 -0.05078 0.0664 3.972 3.972 0 0 1 -0.2129 0.2461 3.972 3.972 0 0 1 -0.04296 0.04687 3.972 3.972 0 0 1 -0.24414 0.23047 3.972 3.972 0 0 1 -0.04883 0.04297 3.972 3.972 0 0 1 -0.26172 0.20117 3.972 3.972 0 0 1 -0.05274 0.03711 3.972 3.972 0 0 1 -0.26367 0.16406 3.972 3.972 0 0 1 -0.09179 0.05274 3.972 3.972 0 0 1 -0.26758 0.13086 3.972 3.972 0 0 1 -0.08008 0.03711 3.972 3.972 0 0 1 -0.25 0.09375 3.972 3.972 0 0 1 -0.15039 0.05078 3.972 3.972 0 0 1 -0.25 0.06445 3.972 3.972 0 0 1 -0.11328 0.02539 3.972 3.972 0 0 1 -0.27735 0.04492 3.972 3.972 0 0 1 -0.1289 0.01563 3.972 3.972 0 0 1 -0.3086 0.01758 3.972 3.972 0 0 1 -0.0625 0.00195 3.972 3.972 0 0 1 -3.1113 -1.5039 3.972 3.972 0 0 1 -0.23047 -0.32226 3.972 3.972 0 0 1 0 -0.00195 3.972 3.972 0 0 1 -0.19727 -0.34376 3.972 3.972 0 0 1 -0.16211 -0.36328 3.972 3.972 0 0 1 -0.00976 -0.02539 3.972 3.972 0 0 1 -0.25977 -1.4102 3.972 3.972 0 0 1 3.9707 -3.9727zm58.389 0a3.972 3.972 0 0 1 3.9726 3.9727 3.972 3.972 0 0 1 -0.26367 1.4102 3.972 3.972 0 0 1 -0.00391 0.00977 3.972 3.972 0 0 1 -0.15625 0.35351 3.972 3.972 0 0 1 -0.17382 0.3125 3.972 3.972 0 0 1 -0.03516 0.05665 3.972 3.972 0 0 1 -0.18164 0.25781 3.972 3.972 0 0 1 -0.05078 0.0664 3.972 3.972 0 0 1 -0.21289 0.2461 3.972 3.972 0 0 1 -0.04297 0.04687 3.972 3.972 0 0 1 -0.24414 0.23047 3.972 3.972 0 0 1 -0.04883 0.04297 3.972 3.972 0 0 1 -0.26172 0.20117 3.972 3.972 0 0 1 -0.05273 0.03711 3.972 3.972 0 0 1 -0.26368 0.16406 3.972 3.972 0 0 1 -0.09179 0.05274 3.972 3.972 0 0 1 -0.26758 0.13086 3.972 3.972 0 0 1 -0.08008 0.03711 3.972 3.972 0 0 1 -0.25 0.09375 3.972 3.972 0 0 1 -0.15039 0.05078 3.972 3.972 0 0 1 -0.25 0.06445 3.972 3.972 0 0 1 -0.11328 0.02539 3.972 3.972 0 0 1 -0.27734 0.04492 3.972 3.972 0 0 1 -0.12891 0.01563 3.972 3.972 0 0 1 -0.30859 0.01758 3.972 3.972 0 0 1 -0.0625 0.00195 3.972 3.972 0 0 1 -0.39649 -0.01953 3.972 3.972 0 0 1 -0.77734 -0.1582 3.972 3.972 0 0 1 -0.37305 -0.13672 3.972 3.972 0 0 1 -0.35742 -0.17188 3.972 3.972 0 0 1 -0.94531 -0.71875 3.972 3.972 0 0 1 -0.85157 -1.3301 3.972 3.972 0 0 1 -0.00976 -0.02539 3.972 3.972 0 0 1 -0.25977 -1.4102 3.972 3.972 0 0 1 0.01953 -0.39649 3.972 3.972 0 0 1 3.9512 -3.5762zm-54.812 60.771h379.72v8.7383h-110.82v68.318h110.82v8.7383h-128.29v34.16h128.29v8.7383h-128.29v34.158h128.29v8.7383h-379.72v-8.7383h242.69v-34.158h-242.69v-8.7383h242.69v-34.16h-242.69v-8.7383h124.32v-68.318h-124.32v-8.7383zm133.06 8.7383v68.318h127.1v-68.318h-127.1zm-133.06 196.22h379.72v8.7383h-379.72v-8.7383z"
       color="#000000"
       color-rendering="auto"
       fill="#fff"
       image-rendering="auto"
       solid-color="#000000"
       style="isolation:auto;mix-blend-mode:normal"
       id="path16" />
  </g>
</svg>
